HIERARCHY
ROOT hips
{
  OFFSET 0 10.074487846421558 1.314567655973056
  CHANNELS 6 Xposition Yposition Zposition Yrotation Xrotation Zrotation
  JOINT spine
  {
    OFFSET -7.042773748992335e-31 0.5690686926897363 0
    CHANNELS 3 Yrotation Xrotation Zrotation
    JOINT chest
    {
      OFFSET 0 1.2435964857087873 0
      CHANNELS 3 Yrotation Xrotation Zrotation
      JOINT upperChest
      {
        OFFSET 0 1.194994586872362 0
        CHANNELS 3 Yrotation Xrotation Zrotation
        JOINT neck
        {
          OFFSET 0 1.515103653293861 0
          CHANNELS 3 Yrotation Xrotation Zrotation
          JOINT head
          {
            OFFSET 0 0.8111851616465653 0
            CHANNELS 3 Yrotation Xrotation Zrotation
            JOINT leftEye
            {
              OFFSET 0.27141371691966987 0.7490044407698551 0.18219031050045686
              CHANNELS 3 Yrotation Xrotation Zrotation
              End Site
              {
                OFFSET 0.27141371691966987 0.7490044407698551 0.18219031050045686
              }
            }
            JOINT rightEye
            {
              OFFSET -0.2714136877644943 0.7490044019380786 0.18219040411850668
              CHANNELS 3 Yrotation Xrotation Zrotation
              End Site
              {
                OFFSET -0.2714136877644943 0.7490044019380786 0.18219040411850668
              }
            }
          }
        }
        JOINT leftShoulder
        {
          OFFSET 0.4137993136083964 1.1593397335613034 0
          CHANNELS 3 Yrotation Xrotation Zrotation
          JOINT leftUpperArm
          {
            OFFSET 1.0096991868951026 0 0
            CHANNELS 3 Yrotation Xrotation Zrotation
            JOINT leftLowerArm
            {
              OFFSET 2.418380967671622 0 0
              CHANNELS 3 Yrotation Xrotation Zrotation
              JOINT leftHand
              {
                OFFSET 2.361538296260114 0 0
                CHANNELS 3 Yrotation Xrotation Zrotation
                JOINT leftIndexProximal
                {
                  OFFSET 0.7243699271447109 0.08118285989887508 0.2022042461579805
                  CHANNELS 3 Yrotation Xrotation Zrotation
                  JOINT leftIndexIntermediate
                  {
                    OFFSET 0.36553107045252053 -0.010567764853200323 -0.014102670024158437
                    CHANNELS 3 Yrotation Xrotation Zrotation
                    JOINT leftIndexDistal
                    {
                      OFFSET 0.22505120770060527 -0.007821041598631284 -0.007511611613336286
                      CHANNELS 3 Yrotation Xrotation Zrotation
                      End Site
                      {
                        OFFSET 0.22505120770060527 -0.007821041598631284 -0.007511611613336286
                      }
                    }
                  }
                }
                JOINT leftLittleProximal
                {
                  OFFSET 0.6721063881632002 0.08118279568569564 -0.3209324945517917
                  CHANNELS 3 Yrotation Xrotation Zrotation
                  JOINT leftLittleIntermediate
                  {
                    OFFSET 0.34587329423120616 5.3042709780015684e-8 -5.929537746918179e-8
                    CHANNELS 3 Yrotation Xrotation Zrotation
                    JOINT leftLittleDistal
                    {
                      OFFSET 0.1992782500022232 0.0030983716482184676 0.0038310952896712935
                      CHANNELS 3 Yrotation Xrotation Zrotation
                      End Site
                      {
                        OFFSET 0.1992782500022232 0.0030983716482184676 0.0038310952896712935
                      }
                    }
                  }
                }
                JOINT leftMiddleProximal
                {
                  OFFSET 0.7301229696860206 0.08118412848995638 0.022516891543707507
                  CHANNELS 3 Yrotation Xrotation Zrotation
                  JOINT leftMiddleIntermediate
                  {
                    OFFSET 0.4076277831942017 -0.000001240188283180288 -1.6203245635504349e-7
                    CHANNELS 3 Yrotation Xrotation Zrotation
                    JOINT leftMiddleDistal
                    {
                      OFFSET 0.2514739255593972 0.0000013850839168938478 -1.8644847207816007e-8
                      CHANNELS 3 Yrotation Xrotation Zrotation
                      End Site
                      {
                        OFFSET 0.2514739255593972 0.0000013850839168938478 -1.8644847207816007e-8
                      }
                    }
                  }
                }
                JOINT leftRingProximal
                {
                  OFFSET 0.7218060861525873 0.08118280646416753 -0.1494689818508163
                  CHANNELS 3 Yrotation Xrotation Zrotation
                  JOINT leftRingIntermediate
                  {
                    OFFSET 0.3781267508900358 0.000001373626195677602 -1.4143108284514483e-7
                    CHANNELS 3 Yrotation Xrotation Zrotation
                    JOINT leftRingDistal
                    {
                      OFFSET 0.21814333268795483 -0.0027137626495670197 -0.004991775417842292
                      CHANNELS 3 Yrotation Xrotation Zrotation
                      End Site
                      {
                        OFFSET 0.21814333268795483 -0.0027137626495670197 -0.004991775417842292
                      }
                    }
                  }
                }
                JOINT leftThumbProximal
                {
                  OFFSET 0.10743676110519984 -0.16423092885053192 -0.07708859146227388
                  CHANNELS 3 Yrotation Xrotation Zrotation
                  JOINT leftThumbIntermediate
                  {
                    OFFSET 0.40350402100066307 -0.01735099334274981 0.315629965828783
                    CHANNELS 3 Yrotation Xrotation Zrotation
                    JOINT leftThumbDistal
                    {
                      OFFSET 0.2320014489535681 -0.01842351809041043 0.21271298411519196
                      CHANNELS 3 Yrotation Xrotation Zrotation
                      End Site
                      {
                        OFFSET 0.2320014489535681 -0.01842351809041043 0.21271298411519196
                      }
                    }
                  }
                }
              }
            }
          }
        }
        JOINT rightShoulder
        {
          OFFSET -0.41379931360839656 1.1593397335613034 0
          CHANNELS 3 Yrotation Xrotation Zrotation
          JOINT rightUpperArm
          {
            OFFSET -1.0096991868951024 0 0
            CHANNELS 3 Yrotation Xrotation Zrotation
            JOINT rightLowerArm
            {
              OFFSET -2.4183809676716232 0 0
              CHANNELS 3 Yrotation Xrotation Zrotation
              JOINT rightHand
              {
                OFFSET -2.3615382962601132 0 0
                CHANNELS 3 Yrotation Xrotation Zrotation
                JOINT rightIndexProximal
                {
                  OFFSET -0.7243699271447109 0.08118285989887508 0.2022042461579805
                  CHANNELS 3 Yrotation Xrotation Zrotation
                  JOINT rightIndexIntermediate
                  {
                    OFFSET -0.36553107045252053 -0.010567764853200323 -0.014102670024158437
                    CHANNELS 3 Yrotation Xrotation Zrotation
                    JOINT rightIndexDistal
                    {
                      OFFSET -0.22505120770060527 -0.007821041598631284 -0.007511611613336286
                      CHANNELS 3 Yrotation Xrotation Zrotation
                      End Site
                      {
                        OFFSET -0.22505120770060527 -0.007821041598631284 -0.007511611613336286
                      }
                    }
                  }
                }
                JOINT rightLittleProximal
                {
                  OFFSET -0.6721063881632002 0.08118279568569564 -0.3209324945517917
                  CHANNELS 3 Yrotation Xrotation Zrotation
                  JOINT rightLittleIntermediate
                  {
                    OFFSET -0.34587329423120616 5.3042709780015684e-8 -5.929537746918179e-8
                    CHANNELS 3 Yrotation Xrotation Zrotation
                    JOINT rightLittleDistal
                    {
                      OFFSET -0.1992782500022232 0.0030983716482184676 0.0038310952896712935
                      CHANNELS 3 Yrotation Xrotation Zrotation
                      End Site
                      {
                        OFFSET -0.1992782500022232 0.0030983716482184676 0.0038310952896712935
                      }
                    }
                  }
                }
                JOINT rightMiddleProximal
                {
                  OFFSET -0.7301229696860206 0.08118412848995638 0.022516891543707507
                  CHANNELS 3 Yrotation Xrotation Zrotation
                  JOINT rightMiddleIntermediate
                  {
                    OFFSET -0.4076277831942017 -0.000001240188283180288 -1.6203245635504349e-7
                    CHANNELS 3 Yrotation Xrotation Zrotation
                    JOINT rightMiddleDistal
                    {
                      OFFSET -0.2514739255593972 0.0000013850839168938478 -1.8644847207816007e-8
                      CHANNELS 3 Yrotation Xrotation Zrotation
                      End Site
                      {
                        OFFSET -0.2514739255593972 0.0000013850839168938478 -1.8644847207816007e-8
                      }
                    }
                  }
                }
                JOINT rightRingProximal
                {
                  OFFSET -0.7218060861525873 0.08118280646416753 -0.1494689818508163
                  CHANNELS 3 Yrotation Xrotation Zrotation
                  JOINT rightRingIntermediate
                  {
                    OFFSET -0.3781267508900358 0.000001373626195677602 -1.4143108284514483e-7
                    CHANNELS 3 Yrotation Xrotation Zrotation
                    JOINT rightRingDistal
                    {
                      OFFSET -0.21814333268795483 -0.0027137626495670197 -0.004991775417842292
                      CHANNELS 3 Yrotation Xrotation Zrotation
                      End Site
                      {
                        OFFSET -0.21814333268795483 -0.0027137626495670197 -0.004991775417842292
                      }
                    }
                  }
                }
                JOINT rightThumbProximal
                {
                  OFFSET -0.10743676110519984 -0.16423092885053192 -0.07708859146227388
                  CHANNELS 3 Yrotation Xrotation Zrotation
                  JOINT rightThumbIntermediate
                  {
                    OFFSET -0.40350402100066307 -0.01735099334274981 0.315629965828783
                    CHANNELS 3 Yrotation Xrotation Zrotation
                    JOINT rightThumbDistal
                    {
                      OFFSET -0.2320014489535681 -0.01842351809041043 0.21271298411519196
                      CHANNELS 3 Yrotation Xrotation Zrotation
                      End Site
                      {
                        OFFSET -0.2320014489535681 -0.01842351809041043 0.21271298411519196
                      }
                    }
                  }
                }
              }
            }
          }
        }
      }
    }
  }
  JOINT leftUpperLeg
  {
    OFFSET 0.8487163290887698 -0.43932186100277326 0
    CHANNELS 3 Yrotation Xrotation Zrotation
    JOINT leftLowerLeg
    {
      OFFSET 0 -3.882816707004296 0
      CHANNELS 3 Yrotation Xrotation Zrotation
      JOINT leftFoot
      {
        OFFSET 0 -4.570431027442807 0.004629272230691511
        CHANNELS 3 Yrotation Xrotation Zrotation
        JOINT leftToes
        {
          OFFSET 0 -0.698875637876343 1.214565366696912
          CHANNELS 3 Yrotation Xrotation Zrotation
          End Site
          {
            OFFSET 0 -0.698875637876343 1.214565366696912
          }
        }
      }
    }
  }
  JOINT rightUpperLeg
  {
    OFFSET -0.8487163290887698 -0.43932186100277326 0
    CHANNELS 3 Yrotation Xrotation Zrotation
    JOINT rightLowerLeg
    {
      OFFSET 0 -3.882816707004296 0
      CHANNELS 3 Yrotation Xrotation Zrotation
      JOINT rightFoot
      {
        OFFSET 0 -4.570431027442807 0.004629272230691511
        CHANNELS 3 Yrotation Xrotation Zrotation
        JOINT rightToes
        {
          OFFSET 0 -0.698875637876343 1.214565366696912
          CHANNELS 3 Yrotation Xrotation Zrotation
          End Site
          {
            OFFSET 0 -0.698875637876343 1.214565366696912
          }
        }
      }
    }
  }
}
MOTION
Frames: 4
Frame Time: 0.03333333333333333
0.20916995406150818 -0.9020282440656011 -0.7317270040512085 -3.0366074058223695 4.501099392125344 -1.4429062017173024 0.2608084650729453 1.561042785463897 -0.5519221765525091 0.8894668720619279 5.938911714100551 -0.34297937617464286 0 0 0 -1.2313961498981603 -7.645170099394064 5.345009072083954 2.1098787679873037 -13.52364822518686 -4.598712387664056 0 0 0 0 0 0 -7.390608129513691 2.049927352832293 -5.300167594737707 -14.252029400418762 5.222881807040875 -71.74403673290794 -24.557997827816493 0.06696823914141188 0.307615207330299 -8.739204599671952 0.45566390498506293 -0.3399036643734712 4.331480795361786 -0.14298671691852405 -47.11989087442478 1.6972258484013807 0.2891560586515989 -19.337882062735158 0.30250731172148443 0.00893198982522405 -3.38410671585599 3.739861352228201 -2.751908503547602 -60.63478429140008 2.3367432932084387 0.563614955654897 -27.119969259499765 0.7092632071116449 0.049309439556914636 -7.9551404675475395 3.309233595236758 -0.8136459373303953 -41.66445801525194 1.7017199992486838 0.290731344560052 -19.39121177484766 0.555583198389034 0.030195003733106712 -6.2237723784979835 0.6267382533939506 -3.206922937825004 -41.87649542731902 1.9023068240242735 0.36609099885592894 -21.78562696362634 1.3518306140158753 0.18148500644917476 -15.293678820740865 -3.3965107005272546 -6.118314049511211 18.29337756801202 23.127798928261562 17.481193934147395 3.728481181602056 -21.71197855264706 -0.8079386361189085 10.892035514291821 17.86219220613381 0.021144903781061326 20.624323517700233 0.9283016184074728 -9.402427622419856 56.36609400215706 14.34131282197965 0.02306927303746044 -0.18332050798128818 -1.1188702934641848 2.6539333394502527 7.396368534492473 6.300063822633279 0.9254502975697123 -3.2912350600126876 -2.5335813375978375 0.9275228906141919 40.2095388178439 -0.641396006065337 0.05279279406118027 9.40913012823928 -3.6627893885653795 0.0292728813802283 -0.8346006688395609 -1.7701967776028011 0.4220425127055468 26.817088507547524 -1.0578214744921224 0.14528364209929928 15.641505332956363 4.884579076331731 -0.553200450258861 4.930840568831297 -2.382353683811261 0.8059937069353085 37.37837956275552 -1.2511496290190531 0.2048436926289007 18.595570149927088 1.3968328818861704 -0.08665478977781774 2.1961544649014377 -1.7745266114074223 0.4242452821040142 26.88792345888551 -1.2549558477075204 0.20610046885784503 18.654279519726774 5.3913638476414185 -6.603068229025582 -18.06606606830306 -18.114863124620403 16.477245958744096 -5.307308818566834 -18.69101021605117 -8.706262985494076 0.7232781870460221 5.666660454330696 -21.901624697322738 -1.558226097320667 2.461866715991779 51.057646872636205 3.221149805154914 -2.6802060428788415 -24.54511514049418 7.200226419569154 0.15487498263240876 -6.590640378201779 -4.620857285316685 -4.796839864376061 -24.107971497228892 6.467815017990994 5.138513922264081 52.21914204952253 3.422394036055573 3.0604173482406987 -21.369864686903696 -11.641519886387837 -0.007194710470974401 -7.060653735544872 1.6946746826984094
0.20658263564109802 -0.7574912720197027 -0.6960636973381042 -3.2497187942081287 4.1305467236893305 -1.347254341072302 0.23282602846110906 1.4251715857538716 -0.5374343102977721 0.8092370313134762 5.651367492727332 -0.2997777451802031 0 0 0 -1.1640212300915975 -7.160669467670677 5.224179838714768 2.2616485806625555 -13.183054982426698 -4.790436959647094 0 0 0 0 0 0 -7.535243304665768 1.949968744772821 -5.140590909907012 -11.223728371546404 5.756554136720364 -69.21255984639913 -23.32853497024945 0.06051618765920714 0.29310329737771573 -8.401714142639745 -1.2656898199779358 -0.399139970758344 4.415650596342059 -0.1393095426860595 -48.468118379557026 1.6857855121248317 0.28515829338462173 -19.202453687768063 0.27997227083590914 0.007648644624474609 -3.131687957905572 3.872409051555297 -2.7198695597884575 -61.5581305783885 2.406465516398114 0.6000048252856566 -27.998402421211434 0.7501055935830874 0.055184648663290266 -8.416432181175963 3.3338153085984645 -0.8675306716776867 -42.64302758870132 1.7260994146086486 0.299395180889754 -19.680252802115486 0.5660678806655854 0.03135671969394612 -6.341613164539566 0.7577571481191355 -3.160198502084673 -42.31699353752003 1.9437322689045615 0.3828351117033066 -22.285225170678917 1.361817849374009 0.18421877690578278 -15.409412835416507 -3.433082974017105 -6.130398173997917 18.496834918308945 23.263938026179108 17.517476522863813 3.72345204911769 -21.695839176338737 -0.7992732085980988 10.87772881338063 17.712142770559524 0.010422922091779656 20.21073259500607 -1.5877605291514931 -9.975506326015575 55.17188873027159 13.861587476620281 0.021537084399166892 -0.1772916410297588 -1.365748684650535 -0.8138322922230965 7.211178691063157 5.518733153823119 0.888330345827721 -5.970547522357183 -2.5568756811288273 0.9473868858264453 40.656249381411456 -0.64950572903642 0.054133859599890935 9.529323712939414 -2.744404325944858 0.003942114719218491 -2.569903084823694 -1.7724891680541004 0.423200581438615 26.85452811645338 -1.069858971277456 0.14867534911060634 15.824163721521339 5.201428834979228 -0.1495014179305886 1.7606954016819845 -2.409769961658786 0.8271479907618261 37.88354762406493 -1.2584556976782617 0.20729880132919412 18.7082486184047 1.4404753891871898 0.07365271819924715 -0.2584765858160103 -1.8579212904015285 0.46774818266017676 28.2612435368154 -1.2573132299726955 0.2069343710033262 18.690536627264482 5.398426681679669 -6.623152845908081 -18.102324116458647 -16.763629003683324 16.308776280987395 -5.428534084964938 -17.71743800745622 -9.51077456835861 -0.26632089096686906 6.595705814038986 -20.07407539102335 -1.2294570087975025 0.4957701473099937 48.21872599358279 1.526532737384893 -2.4398600446467897 -21.586784553492862 6.403343610821241 0.06331223911574577 -6.936100597565921 -3.2259358710238155 -4.99838622243588 -22.508703230599217 5.92519568723845 5.9302197299291715 49.674317647868236 3.830174140224991 2.956647939249789 -18.521501330849308 -9.613005502467189 8.771453456169603e-7 -7.118767060282951 1.9780002069645838e-8
0.19530197978019714 -0.03509156041081596 -0.51093989610672 -3.2795601035811996 4.007750939558407 -1.2289936949489007 0.24407983024528762 0.8826793969656896 -0.14949574599490234 0.7847399467091944 3.7150704234355736 0.13899240003319818 0 0 0 -1.0671417356246606 -8.105183254237852 4.398543141378175 1.8666753915483523 -9.117586483359192 -5.425857449666169 0 0 0 0 0 0 -6.883401369864338 1.641394310783555 -8.28296271202318 0.12700823077236914 4.40123921336579 -55.96527259514067 -22.25218448918704 0.05510516430104186 0.28026260399650166 -7.664950654190392 -8.289959890621155 1.1647547951895467 4.140339365416406 -0.6477194079549178 -51.00176034277016 1.7181645910836512 0.2965536503658212 -19.58611746472583 0.21916305892514462 0.004687280272280764 -2.4510253820658487 3.505593202139629 -3.3658725214093823 -60.60725243193408 2.5501300519375416 0.6793484534628338 -29.8316514419516 0.8405996943624262 0.06940326333597371 -9.440587800351741 3.2892046509083253 -1.0690563237958968 -44.52645932642931 1.773002039652489 0.3164275708171765 -20.23783190629756 0.5981519198897557 0.03502012962309072 -6.702780542216261 0.8216437454147574 -3.253788043251447 -43.26020449483207 2.0464566800394017 0.4262443147527096 -23.531215079435917 1.4050985967200615 0.1963541023172807 -15.911736417734364 -3.4462285150911813 -6.163660770641521 18.696836327466276 22.61763381917475 17.454972564686344 3.760915590194212 -22.403011531747325 -0.7280425183344601 11.389687521819216 12.493105239029925 0.5982997460874435 20.18024427915245 -8.191603358634303 -13.559542366351641 47.7822694146408 13.350532901732628 0.019987823637363514 -0.17087540546478566 -1.7717357885840304 -12.255909067585618 5.487831283202966 2.8104001962252423 0.35914893302350137 -1.8837224629814022 -2.655187603811613 1.0347054619183882 42.57491841011547 -0.691639375357976 0.06144153207347535 10.15377791827293 -0.6016233349095638 -0.696265596431953 -3.0968198982643664 -1.7653953482250555 0.4196079915284524 26.73848600201676 -1.098093189129536 0.15680180900094373 16.253140353732004 5.235912499941534 0.3690073361940432 -2.2001537746991056 -2.44529100144173 0.8550850343003414 38.543132738014705 -1.2725830321762142 0.21212162754017094 18.926157313322246 1.5924396321934318 0.1370098966840031 -1.1904834326752807 -1.8872096307576758 0.48367769340472966 28.74765716878737 -1.2655824748646374 0.2097333663440937 18.81793988574268 5.402828035505726 -6.677731737177688 -18.196060276417075 -16.91521216676335 16.32668054168702 -5.415503927738055 -16.944015009672043 -11.262486821210498 -4.995958681108918 9.892613383999652 -14.534610856890943 0.3234128003310197 -7.062187868233161 35.3698010374806 -3.5812220068655187 -1.211248002684261 -2.5013600465009866 -0.8120983822717 0.004105474788494164 -8.54336925922775 0.5597753833362643 -6.559966383210276 -17.32830987120506 3.430864654470013 10.481474161905139 37.0958651646653 6.388222743688371 2.553543627181452 0.7940913154904296 2.9235416058476225 0.011868113565273041 -9.992097950086231 -1.8750953187537849
0.19369636476039886 0.23569186396662545 -0.4503960907459259 -3.1982346655748697 4.34323663927986 -1.229722676513957 0.26521703044830774 0.7308968082421852 -0.01672355021649078 0.8189757859831976 3.0659115999812507 0.24623771337904216 0 0 0 -1.085793471905564 -9.087204848331382 4.192841741222403 1.6104192329799205 -7.650191409857843 -5.633706702423039 0 0 0 0 0 0 -5.949504435799583 1.6324338215629723 -9.567925031639161 3.2181895100570626 2.2948965150776317 -50.97718569637856 -23.279931541504435 0.060246481748608804 0.2925097278956555 -7.929522027701592 -10.416639992103947 2.5079971820818314 3.9597982350693735 -0.9097986193127833 -51.517808160647576 1.7447474240898069 0.3060961969424027 -19.901767542597625 0.19271659317848952 0.0036240594392779367 -2.1551689929334663 3.2614554063839836 -3.8380448224790342 -58.24894845229947 2.5859260571946985 0.7000724288553587 -30.29358392857137 0.8606614259075616 0.07277789965238451 -9.668110935984181 3.1812512718809964 -1.2523268506299052 -45.34088690438632 1.7882448288994512 0.3220584821862419 -20.419602289167326 0.6104968733055213 0.03648756003344389 -6.841677668672108 0.799301289206237 -3.3575124985554146 -43.75965620968527 2.074111670920278 0.4383917784804199 -23.868752297742496 1.4246237055970594 0.20196482979354444 -16.138700397622106 -3.2991704651713083 -6.131310526628881 17.99332284335373 22.84283152415663 17.51309143228123 3.717059301631579 -22.695874809173123 -0.6785864069779775 11.706457156470103 9.901903785214198 0.9550515210544483 20.210788575583653 -9.388852986987933 -15.451876617919583 44.417585820504975 14.127893758469924 0.022389850921983184 -0.18067310743270232 -1.4054134733906607 -14.898563779766347 4.219411454614665 2.1907877985515816 0.20714872294886838 2.622684367738944 -2.7021193666756624 1.0785300725039688 43.51163117487662 -0.7102137231968393 0.06481678816094194 10.429555359126248 -0.34427728298136057 -1.125292540337777 -1.362741452576559 -1.7639368179335366 0.41887922285105217 26.714659737186455 -1.104326118351597 0.15862243483803865 16.347896648110666 4.94519956896043 0.17466006703729559 -0.7510835743455786 -2.4477024705794936 0.857018780637191 38.58818916441696 -1.2753544112279895 0.21306661472931704 18.9689393353681 1.7577069357665545 -0.01545934796884626 1.0424767854512957 -1.8246367008751672 0.4500852270743221 27.711040472090414 -1.2679634380114468 0.2105372263188041 18.854872024027408 5.375153801278681 -6.628110093639292 -18.105597693872113 -18.636230780173364 16.548211762534002 -5.254498068131379 -17.827236295868563 -11.211352484654732 -6.522967024654422 10.552069008495724 -13.888175001859324 0.986954286170945 -7.822994550572295 31.724723505014616 -4.074096200073226 -1.1269318032335287 5.520981915705706 -4.959588544120634 0.004064073926665215 -8.159866697665725 0.5481594304108434 -7.061690226556742 -16.490667373267264 2.6032674193974423 11.409151634996663 33.150342596823165 6.693561467878914 2.585700561022066 8.289929693011976 8.082332906836857 0.013120025378673657 -8.88519063668288 -1.9142218807615814
